<svg width="28" height="32" viewBox="0 0 28 32" fill="none" xmlns="http://www.w3.org/2000/svg">
<g filter="url(#filter0_d)">
<path fill-rule="evenodd" clip-rule="evenodd" d="M14 2C11.8783 2 9.84344 2.84285 8.34315 4.34315C6.84285 5.84344 6 7.87827 6 10C6 13.0981 8.01574 16.1042 10.226 18.4373C11.3106 19.5822 12.3987 20.5195 13.2167 21.1708C13.5211 21.4133 13.787 21.6152 14 21.7726C14.213 21.6152 14.4789 21.4133 14.7833 21.1708C15.6013 20.5195 16.6894 19.5822 17.774 18.4373C19.9843 16.1042 22 13.0981 22 10C22 7.87827 21.1571 5.84344 19.6569 4.34315C18.1566 2.84285 16.1217 2 14 2ZM14 23C13.4453 23.8321 13.445 23.8319 13.4448 23.8317L13.4419 23.8298L13.4352 23.8253L13.4123 23.8098C13.3928 23.7966 13.3651 23.7776 13.3296 23.753C13.2585 23.7038 13.1565 23.6321 13.0278 23.5392C12.7705 23.3534 12.4064 23.0822 11.9708 22.7354C11.1013 22.043 9.93939 21.0428 8.77405 19.8127C6.48426 17.3958 4 13.9019 4 10C4 7.34784 5.05357 4.8043 6.92893 2.92893C8.8043 1.05357 11.3478 0 14 0C16.6522 0 19.1957 1.05357 21.0711 2.92893C22.9464 4.8043 24 7.34784 24 10C24 13.9019 21.5157 17.3958 19.226 19.8127C18.0606 21.0428 16.8987 22.043 16.0292 22.7354C15.5936 23.0822 15.2295 23.3534 14.9722 23.5392C14.8435 23.6321 14.7415 23.7038 14.6704 23.753C14.6349 23.7776 14.6072 23.7966 14.5877 23.8098L14.5648 23.8253L14.5581 23.8298L14.556 23.8312C14.5557 23.8314 14.5547 23.8321 14 23ZM14 23L14.5547 23.8321C14.2188 24.056 13.7807 24.0556 13.4448 23.8317L14 23Z" fill="black"/>
<path fill-rule="evenodd" clip-rule="evenodd" d="M14 8C12.8954 8 12 8.89543 12 10C12 11.1046 12.8954 12 14 12C15.1046 12 16 11.1046 16 10C16 8.89543 15.1046 8 14 8ZM10 10C10 7.79086 11.7909 6 14 6C16.2091 6 18 7.79086 18 10C18 12.2091 16.2091 14 14 14C11.7909 14 10 12.2091 10 10Z" fill="black"/>
</g>
<defs>
<filter id="filter0_d" x="-2" y="0" width="32" height="32" filterUnits="userSpaceOnUse" color-interpolation-filters="sRGB">
<feFlood flood-opacity="0" result="BackgroundImageFix"/>
<feColorMatrix in="SourceAlpha" type="matrix" values="0 0 0 0 0 0 0 0 0 0 0 0 0 0 0 0 0 0 127 0"/>
<feOffset dy="4"/>
<feGaussianBlur stdDeviation="2"/>
<feColorMatrix type="matrix" values="0 0 0 0 0 0 0 0 0 0 0 0 0 0 0 0 0 0 0.25 0"/>
<feBlend mode="normal" in2="BackgroundImageFix" result="effect1_dropShadow"/>
<feBlend mode="normal" in="SourceGraphic" in2="effect1_dropShadow" result="shape"/>
</filter>
</defs>
</svg>
