<svg width="24" height="24" viewBox="0 0 24 24" fill="none" xmlns="http://www.w3.org/2000/svg">
<path d="M18.4051 7.5H5.60505C4.88505 7.5 4.30505 6.92 4.30505 6.2C4.30505 5.48 4.88505 4.9 5.60505 4.9H18.4051C19.1251 4.9 19.7051 5.48 19.7051 6.2C19.7051 6.92 19.1251 7.5 18.4051 7.5ZM19.7051 12C19.7051 11.28 19.1251 10.7 18.4051 10.7H5.60505C4.88505 10.7 4.30505 11.28 4.30505 12C4.30505 12.72 4.88505 13.3 5.60505 13.3H18.4051C19.1251 13.3 19.7051 12.72 19.7051 12ZM19.7051 17.8C19.7051 17.08 19.1251 16.5 18.4051 16.5H5.60505C4.88505 16.5 4.30505 17.08 4.30505 17.8C4.30505 18.52 4.88505 19.1 5.60505 19.1H18.4051C19.1251 19.1 19.7051 18.52 19.7051 17.8Z" fill="#262626"/>
</svg>
